<svg xmlns="http://www.w3.org/2000/svg" version="1.1" xmlns:xlink="http://www.w3.org/1999/xlink" xmlns:svgjs="http://svgjs.dev/svgjs" viewBox="0 0 16.340790711625623 16.126017163819327"><g transform="matrix(0.856328216839423,0,0,0.856328216839423,2.332282090498521,12.64284449128004)"><g transform="matrix(1,0,0,1,0,0)" clip-path="url(#SvgjsClipPath24341)"><g clip-path="url(#SvgjsClipPath2433927fca456-d912-4143-a066-d0c86abd5cf3)"><path d=" M 6.817611694335938 -12.058449840865583 C 3.5569558673098296 -12.058449840865583 0.913386773903147 -9.4148807474589 0.913386773903147 -6.154224920432791 C 0.913386773903147 -2.893569093406681 3.5569558673098287 -0.25 6.817611694335938 -0.25 C 10.078267521362047 -0.25 12.72183661476873 -2.893569093406681 12.72183661476873 -6.154224920432791 C 12.72183661476873 -9.4148807474589 10.078267521362047 -12.058449840865583 6.817611694335938 -12.058449840865583 Z M 6.512877504894246 -9.04919972012887 L 6.5839821490973085 -9.21172462116444 L 6.65508679330037 -9.04919972012887 L 6.817611694335938 -8.978095075925808 L 6.65508679330037 -8.906990431722745 L 6.5839821490973085 -8.744465530687176 L 6.512877504894246 -8.906990431722745 L 6.350352603858678 -8.978095075925808 L 6.512877504894246 -9.04919972012887 Z M 5.908488029168223 -7.093822004544676 L 5.601214388147848 -6.956691619295915 L 5.464084002899088 -6.649417978275541 L 5.326953617650327 -6.956691619295915 L 5.019679976629952 -7.093822004544676 L 5.326953617650327 -7.230952389793438 L 5.464084002899088 -7.53822603081381 L 5.601214388147848 -7.230952389793438 L 5.908488029168223 -7.093822004544676 Z M 5.133955297670588 -8.498138727555142 L 5.24315171555386 -8.744465530687178 L 5.352348133437134 -8.498138727555142 L 5.59867493656917 -8.388942309671869 L 5.352348133437134 -8.279745891788595 L 5.24315171555386 -8.033419088656562 L 5.133955297670588 -8.279745891788595 L 4.887628494538553 -8.388942309671869 L 5.133955297670588 -8.498138727555142 Z M 7.135043141671035 -4.643251231117732 L 2.2694539169186774 -4.089650786965325 C 2.2694539169186774 -4.089650786965325 6.025302801787537 -5.097813063701589 8.66125354045818 -10.146242802118962 C 7.820695067914842 -5.8850430530926285 8.381913866803295 -3.193224379691012 8.381913866803295 -3.193224379691012 L 7.135043141671035 -4.643251231117732 Z M 8.785686667813534 -6.291355305681551 L 8.478413026793163 -6.428485690930313 L 8.785686667813534 -6.565616076179073 L 8.922817053062296 -6.872889717199447 L 9.05994743831106 -6.565616076179073 L 9.36722107933143 -6.428485690930313 L 9.05994743831106 -6.291355305681551 L 8.922817053062296 -5.984081664661177 L 8.785686667813534 -6.291355305681551 Z M 9.313892596179134 -5.072418547914782 L 9.242787951976076 -4.909893646879214 L 9.171683307773012 -5.072418547914782 L 9.009158406737445 -5.1435231921178435 L 9.171683307773012 -5.214627836320905 L 9.242787951976076 -5.377152737356475 L 9.313892596179134 -5.214627836320905 L 9.476417497214705 -5.1435231921178435 L 9.313892596179134 -5.072418547914782 Z M 9.547522141417769 -7.959774992874818 L 9.476417497214708 -7.797250091839249 L 9.405312853011644 -7.959774992874818 L 9.242787951976076 -8.03087963707788 L 9.405312853011644 -8.101984281280942 L 9.476417497214708 -8.264509182316512 L 9.547522141417769 -8.101984281280942 L 9.710047042453336 -8.03087963707788 L 9.547522141417769 -7.959774992874818 Z" fill="#100121" transform="matrix(1,0,0,1,0,0)" fill-rule="nonzero"></path></g><g clip-path="url(#SvgjsClipPath2433927fca456-d912-4143-a066-d0c86abd5cf3)"><path d=" M 2.2694539169186774 -4.089650786965325 L 6.583982149097306 -4.980998291082275 L 8.661253540458175 -10.143703350540282 C 6.025302801787537 -5.097813063701589 2.2694539169186774 -4.089650786965325 2.2694539169186774 -4.089650786965325 Z" fill="#0063cc" transform="matrix(1,0,0,1,0,0)" fill-rule="nonzero"></path></g><g clip-path="url(#SvgjsClipPath2433927fca456-d912-4143-a066-d0c86abd5cf3)"><path d=" M 8.66125354045818 -10.143703350540282 L 7.452474589006131 -4.691500811112666 L 8.381913866803295 -3.1906849281123293 C 8.37937441522461 -3.193224379691012 7.8181556163361625 -5.882503601513949 8.66125354045818 -10.143703350540282 Z" fill="#840abf" transform="matrix(1,0,0,1,0,0)" fill-rule="nonzero"></path></g><g clip-path="url(#SvgjsClipPath2433927fca456-d912-4143-a066-d0c86abd5cf3)"><path d=" M 5.24315171555386 -8.03087963707788 L 5.352348133437133 -8.279745891788595 L 5.59867493656917 -8.388942309671869 L 5.352348133437133 -8.498138727555142 L 5.24315171555386 -8.744465530687178 L 5.133955297670588 -8.498138727555142 L 4.887628494538553 -8.388942309671869 L 5.133955297670588 -8.279745891788595 Z" fill="#02b3a8" transform="matrix(1,0,0,1,0,0)" fill-rule="nonzero"></path></g><g clip-path="url(#SvgjsClipPath2433927fca456-d912-4143-a066-d0c86abd5cf3)"><path d=" M 9.242787951976076 -5.377152737356475 L 9.171683307773012 -5.214627836320905 L 9.009158406737441 -5.1435231921178435 L 9.171683307773012 -5.072418547914782 L 9.242787951976076 -4.909893646879214 L 9.313892596179134 -5.072418547914782 L 9.476417497214705 -5.1435231921178435 L 9.313892596179134 -5.214627836320905 Z" fill="#02b3a8" transform="matrix(1,0,0,1,0,0)" fill-rule="nonzero"></path></g><g clip-path="url(#SvgjsClipPath2433927fca456-d912-4143-a066-d0c86abd5cf3)"><path d=" M 9.547522141417769 -8.104523732859622 L 9.476417497214705 -8.26450918231651 L 9.405312853011644 -8.104523732859622 L 9.242787951976076 -8.03087963707788 L 9.405312853011644 -7.959774992874818 L 9.476417497214705 -7.799789543417931 L 9.547522141417769 -7.959774992874818 L 9.707507590874656 -8.03087963707788 Z" fill="#02b3a8" transform="matrix(1,0,0,1,0,0)" fill-rule="nonzero"></path></g><g clip-path="url(#SvgjsClipPath2433927fca456-d912-4143-a066-d0c86abd5cf3)"><path d=" M 6.586521600675988 -9.21172462116444 L 6.512877504894246 -9.04919972012887 L 6.352892055437357 -8.978095075925808 L 6.512877504894246 -8.906990431722747 L 6.586521600675988 -8.744465530687178 L 6.657626244879051 -8.906990431722747 L 6.817611694335938 -8.978095075925808 L 6.657626244879051 -9.04919972012887 Z" fill="#02b3a8" transform="matrix(1,0,0,1,0,0)" fill-rule="nonzero"></path></g><g clip-path="url(#SvgjsClipPath2433927fca456-d912-4143-a066-d0c86abd5cf3)"><path d=" M 9.36722107933143 -6.428485690930314 L 9.05994743831106 -6.563076624600395 L 8.922817053062296 -6.870350265620768 L 8.785686667813534 -6.563076624600395 L 8.478413026793163 -6.428485690930314 L 8.785686667813534 -6.291355305681551 L 8.922817053062296 -5.984081664661179 L 9.05994743831106 -6.291355305681551 Z" fill="#02b3a8" transform="matrix(1,0,0,1,0,0)" fill-rule="nonzero"></path></g><g clip-path="url(#SvgjsClipPath2433927fca456-d912-4143-a066-d0c86abd5cf3)"><path d=" M 5.464084002899088 -7.53568657923513 L 5.326953617650324 -7.228412938214757 L 5.019679976629952 -7.093822004544676 L 5.326953617650324 -6.956691619295915 L 5.464084002899088 -6.649417978275541 L 5.601214388147848 -6.956691619295915 L 5.908488029168223 -7.093822004544676 L 5.601214388147848 -7.228412938214757 Z" fill="#02b3a8" transform="matrix(1,0,0,1,0,0)" fill-rule="nonzero"></path></g><g clip-path="url(#SvgjsClipPath2433927fca456-d912-4143-a066-d0c86abd5cf3)"><path d=" M 6.583982149097306 -4.980998291082275 L 2.2694539169186774 -4.089650786965325 L 7.135043141671035 -4.643251231117732 L 8.66125354045818 -10.143703350540282 Z" fill="#0449b7" transform="matrix(1,0,0,1,0,0)" fill-rule="nonzero"></path></g><g clip-path="url(#SvgjsClipPath2433927fca456-d912-4143-a066-d0c86abd5cf3)"><path d=" M 8.66125354045818 -10.143703350540282 L 7.135043141671035 -4.643251231117732 L 8.37937441522461 -3.193224379691012 L 7.44993513742745 -4.691500811112666 Z" fill="#7204b2" transform="matrix(1,0,0,1,0,0)" fill-rule="nonzero"></path></g></g><g><path d=" M 0.9 1.221 Q 0.909 1.2555 0.95325 1.26225 Q 0.9975 1.2690000000000001 1.0695000000000001 1.2690000000000001 Q 1.0905 1.2690000000000001 1.1107500000000001 1.2750000000000001 Q 1.131 1.2810000000000001 1.131 1.302 Q 1.131 1.323 1.1175 1.3305 Q 1.104 1.338 1.0785 1.338 L 0.729 1.338 Q 0.7020000000000001 1.338 0.69225 1.332 Q 0.6825 1.326 0.6825 1.314 Q 0.6825 1.2975 0.6990000000000001 1.29375 Q 0.7155 1.29 0.73575 1.2862500000000001 Q 0.756 1.2825 0.7725 1.272 Q 0.789 1.2615 0.789 1.233 Q 0.789 1.2255 0.7837500000000001 1.20225 Q 0.7785 1.179 0.771 1.14825 Q 0.7635000000000001 1.1175000000000002 0.7545000000000001 1.0822500000000002 Q 0.7455 1.0470000000000002 0.7365 1.0155 Q 0.7275 0.984 0.72 0.9585000000000001 Q 0.7125 0.933 0.7095 0.921 L 0.3375 0.921 Q 0.327 0.9510000000000001 0.31575000000000003 0.9862500000000001 Q 0.3045 1.0215 0.29475 1.05525 Q 0.28500000000000003 1.089 0.279 1.1167500000000001 Q 0.273 1.1445 0.273 1.1580000000000001 Q 0.273 1.167 0.28425 1.17225 Q 0.2955 1.1775 0.31275000000000003 1.17975 Q 0.33 1.1820000000000002 0.35025 1.1820000000000002 Q 0.3705 1.1820000000000002 0.387 1.1820000000000002 Q 0.402 1.1820000000000002 0.41625 1.1895 Q 0.4305 1.197 0.4305 1.2195 Q 0.4305 1.233 0.42 1.24425 Q 0.40950000000000003 1.2555 0.3795 1.2555 L -0.021 1.2555 Q -0.0345 1.2555 -0.045 1.2457500000000001 Q -0.0555 1.236 -0.0555 1.2195 Q -0.0555 1.2045000000000001 -0.04425 1.19625 Q -0.033 1.1880000000000002 -0.018000000000000002 1.1880000000000002 Q -0.0075 1.1880000000000002 0.009000000000000001 1.1865 Q 0.025500000000000002 1.185 0.042 1.1835 Q 0.0585 1.1820000000000002 0.07125000000000001 1.1805 Q 0.084 1.179 0.0885 1.179 Q 0.12 1.1760000000000002 0.1365 1.1625 Q 0.153 1.149 0.162 1.122 Q 0.1845 1.0590000000000002 0.21225 0.9675 Q 0.24 0.8760000000000001 0.26925 0.7710000000000001 Q 0.2985 0.666 0.32925 0.5557500000000001 Q 0.36 0.4455 0.387 0.34575 Q 0.41400000000000003 0.246 0.43725 0.16349999999999998 Q 0.4605 0.08099999999999996 0.47550000000000003 0.031500000000000083 Q 0.47850000000000004 0.019500000000000073 0.4905 0.009749999999999925 Q 0.5025000000000001 0 0.5295 0 Q 0.5730000000000001 0 0.582 0.031500000000000083 L 0.9 1.221 M 0.534 0.18300000000000005 Q 0.5265 0.21150000000000002 0.5145 0.258 Q 0.5025000000000001 0.3045 0.4875 0.36150000000000004 Q 0.47250000000000003 0.4185000000000001 0.45525 0.48150000000000004 Q 0.438 0.5445000000000001 0.42225 0.6060000000000001 Q 0.40650000000000003 0.6675000000000001 0.3915 0.72375 Q 0.3765 0.78 0.366 0.8220000000000001 Q 0.41250000000000003 0.8235000000000001 0.45525 0.8235000000000001 Q 0.498 0.8235000000000001 0.5445 0.8235000000000001 Q 0.579 0.8235000000000001 0.61575 0.8235000000000001 Q 0.6525 0.8235000000000001 0.687 0.8220000000000001 Q 0.669 0.753 0.6495 0.6735000000000001 Q 0.63 0.5940000000000001 0.60975 0.51 Q 0.5895 0.42600000000000005 0.5700000000000001 0.34275 Q 0.5505 0.25950000000000006 0.534 0.18300000000000005 M 1.3424970703125 1.1685 L 1.4279970703125 1.1685 Q 1.4609970703125001 1.1685 1.4804970703125 1.1760000000000002 Q 1.4999970703125 1.1835 1.4999970703125 1.2135 Q 1.4999970703125 1.233 1.4864970703125 1.24425 Q 1.4729970703125 1.2555 1.4549970703125 1.2555 L 1.1864970703125 1.2555 Q 1.1684970703125 1.2555 1.1497470703125 1.25475 Q 1.1309970703125 1.254 1.1167470703125 1.25025 Q 1.1024970703125 1.2465000000000002 1.0927470703125 1.23825 Q 1.0829970703125 1.23 1.0829970703125 1.215 Q 1.0829970703125 1.2015 1.0889970703125 1.194 Q 1.0949970703125 1.1865 1.1069970703125 1.18275 Q 1.1189970703125 1.179 1.1347470703125 1.17675 Q 1.1504970703125 1.1745 1.1714970703125 1.1715 Q 1.2044970703125 1.167 1.2164970703125 1.16175 Q 1.2284970703125 1.1565 1.2314970703124999 1.1400000000000001 Q 1.2359970703125 1.092 1.2367470703125 1.0357500000000002 Q 1.2374970703125001 0.9795 1.2374970703125001 0.936 Q 1.2374970703125001 0.879 1.2359970703125 0.8265 Q 1.2344970703125 0.774 1.2314970703124999 0.7170000000000001 Q 1.2299970703125 0.6990000000000001 1.2254970703125 0.6877500000000001 Q 1.2209970703125 0.6765000000000001 1.2089970703125 0.6765000000000001 Q 1.2029970703125 0.6765000000000001 1.1857470703125 0.678 Q 1.1684970703125 0.6795 1.1497470703125 0.68025 Q 1.1309970703125 0.681 1.1144970703125 0.6825 Q 1.0979970703125 0.684 1.0919970703125 0.684 Q 1.0799970703125 0.684 1.0649970703125 0.6765000000000001 Q 1.0499970703125 0.669 1.0499970703125 0.66 Q 1.0499970703125 0.642 1.0574970703125 0.633 Q 1.0649970703125 0.624 1.0792470703125 0.6195 Q 1.0934970703125 0.6150000000000001 1.1137470703125 0.6135 Q 1.1339970703125 0.6120000000000001 1.1594970703125 0.6090000000000001 Q 1.1789970703125001 0.6075 1.2014970703125 0.6060000000000001 Q 1.2239970703125 0.6045 1.2457470703125 0.6030000000000001 Q 1.2674970703125 0.6015 1.2854970703125 0.6015 Q 1.3034970703125 0.6015 1.3154970703125 0.6015 Q 1.3334970703125 0.6015 1.3379970703125 0.61575 Q 1.3424970703125 0.63 1.3424970703125 0.654 L 1.3424970703125 1.1685 M 1.1909970703125001 0.38550000000000006 Q 1.1909970703125001 0.375 1.1962470703124999 0.35925000000000007 Q 1.2014970703125 0.3435 1.2112470703125 0.33000000000000007 Q 1.2209970703125 0.3165 1.2374970703125001 0.3067500000000001 Q 1.2539970703125 0.29700000000000004 1.2764970703125 0.29700000000000004 Q 1.3064970703125 0.29700000000000004 1.3289970703125 0.3187500000000001 Q 1.3514970703125 0.3405 1.3514970703125 0.37950000000000006 Q 1.3514970703125 0.4335 1.3222470703125 0.4545 Q 1.2929970703125 0.47550000000000003 1.2659970703125 0.47550000000000003 Q 1.2344970703125 0.47550000000000003 1.2127470703125 0.45000000000000007 Q 1.1909970703125001 0.4245 1.1909970703125001 0.38550000000000006 M 2.13301171875 1.179 L 2.26951171875 1.179 Q 2.28601171875 1.179 2.30026171875 1.1895 Q 2.31451171875 1.2 2.31451171875 1.221 Q 2.31451171875 1.23 2.30926171875 1.24275 Q 2.30401171875 1.2555 2.28451171875 1.2555 L 1.93651171875 1.2555 Q 1.91401171875 1.2555 1.89451171875 1.2495 Q 1.87501171875 1.2435 1.87501171875 1.221 Q 1.87501171875 1.2 1.89001171875 1.19175 Q 1.90501171875 1.1835 1.91851171875 1.1835 Q 1.93051171875 1.1835 1.94776171875 1.18275 Q 1.96501171875 1.1820000000000002 1.98151171875 1.1752500000000001 Q 1.99801171875 1.1685 2.00926171875 1.15425 Q 2.02051171875 1.1400000000000001 2.02051171875 1.1145 Q 2.02051171875 0.9990000000000001 2.02351171875 0.8880000000000001 Q 2.02651171875 0.777 2.02651171875 0.654 Q 2.02651171875 0.5295000000000001 2.02351171875 0.39375000000000004 Q 2.02051171875 0.258 2.02051171875 0.13349999999999995 Q 2.02051171875 0.1200000000000001 2.00776171875 0.11325000000000007 Q 1.99501171875 0.10650000000000004 1.97701171875 0.10349999999999993 Q 1.95901171875 0.10050000000000003 1.94026171875 0.09975 Q 1.92151171875 0.09899999999999998 1.90801171875 0.09899999999999998 Q 1.90051171875 0.09899999999999998 1.89076171875 0.09750000000000014 Q 1.88101171875 0.09600000000000009 1.87276171875 0.09224999999999994 Q 1.86451171875 0.08850000000000002 1.85851171875 0.08099999999999996 Q 1.85251171875 0.07350000000000012 1.85251171875 0.06150000000000011 Q 1.85251171875 0.03600000000000003 1.87351171875 0.030000000000000027 Q 1.89451171875 0.02400000000000002 1.90801171875 0.02400000000000002 L 2.21101171875 0.02400000000000002 Q 2.25901171875 0.02400000000000002 2.27326171875 0.03300000000000014 Q 2.2875117187500003 0.04200000000000004 2.2875117187500003 0.06150000000000011 Q 2.2875117187500003 0.08250000000000002 2.26876171875 0.09075000000000011 Q 2.25001171875 0.09899999999999998 2.23201171875 0.09899999999999998 Q 2.22601171875 0.09899999999999998 2.21026171875 0.09975 Q 2.19451171875 0.10050000000000003 2.17726171875 0.10349999999999993 Q 2.16001171875 0.10650000000000004 2.1465117187500002 0.11475000000000013 Q 2.13301171875 0.123 2.13301171875 0.13650000000000007 L 2.13301171875 1.179 M 3.109517578125 1.212 L 3.190517578125 1.212 Q 3.201017578125 1.212 3.215267578125 1.2135 Q 3.229517578125 1.215 3.243017578125 1.22025 Q 3.256517578125 1.2255 3.265517578125 1.23525 Q 3.2745175781249998 1.245 3.2745175781249998 1.2615 Q 3.2745175781249998 1.284 3.258017578125 1.2915 Q 3.241517578125 1.2990000000000002 3.219017578125 1.2990000000000002 Q 3.211517578125 1.2990000000000002 3.1702675781250003 1.29975 Q 3.129017578125 1.3005 3.080267578125 1.3005 Q 3.031517578125 1.3005 2.990267578125 1.30125 Q 2.949017578125 1.302 2.943017578125 1.302 Q 2.923517578125 1.302 2.908517578125 1.29375 Q 2.893517578125 1.2855 2.893517578125 1.26 Q 2.893517578125 1.239 2.907767578125 1.22925 Q 2.9220175781249997 1.2195 2.9355175781250002 1.2165000000000001 Q 2.973017578125 1.212 2.985017578125 1.203 Q 2.997017578125 1.194 3.000017578125 1.1580000000000001 Q 3.003017578125 1.098 3.003767578125 1.056 Q 3.004517578125 1.014 3.004517578125 1.0110000000000001 Q 3.004517578125 0.9420000000000001 2.999267578125 0.87825 Q 2.994017578125 0.8145 2.978267578125 0.76725 Q 2.962517578125 0.7200000000000001 2.933267578125 0.6915 Q 2.904017578125 0.663 2.854517578125 0.663 Q 2.791517578125 0.663 2.742767578125 0.7057500000000001 Q 2.694017578125 0.7485 2.668517578125 0.8055000000000001 Q 2.652017578125 0.8400000000000001 2.643767578125 0.88575 Q 2.635517578125 0.9315 2.635517578125 0.9765 L 2.635517578125 1.1445 L 2.736017578125 1.1445 Q 2.761517578125 1.1445 2.778017578125 1.1535 Q 2.7945175781250002 1.1625 2.7945175781250002 1.1925000000000001 Q 2.7945175781250002 1.218 2.780267578125 1.2255 Q 2.766017578125 1.233 2.736017578125 1.233 Q 2.730017578125 1.233 2.690267578125 1.233 Q 2.650517578125 1.233 2.602517578125 1.2337500000000001 Q 2.554517578125 1.2345000000000002 2.5132675781250002 1.2345000000000002 Q 2.472017578125 1.2345000000000002 2.464517578125 1.2345000000000002 Q 2.440517578125 1.2345000000000002 2.420267578125 1.2285000000000001 Q 2.400017578125 1.2225000000000001 2.400017578125 1.194 Q 2.400017578125 1.167 2.418767578125 1.1580000000000001 Q 2.437517578125 1.149 2.455517578125 1.149 L 2.485517578125 1.149 Q 2.499017578125 1.149 2.507267578125 1.1407500000000002 Q 2.515517578125 1.1325 2.520017578125 1.11975 Q 2.5245175781249998 1.107 2.526017578125 1.0935000000000001 Q 2.527517578125 1.08 2.527517578125 1.068 Q 2.527517578125 1.0425 2.529017578125 0.9862500000000001 Q 2.530517578125 0.93 2.532017578125 0.8700000000000001 Q 2.533517578125 0.81 2.534267578125 0.762 Q 2.535017578125 0.7140000000000001 2.535017578125 0.7050000000000001 Q 2.535017578125 0.6555000000000001 2.509517578125 0.6555000000000001 L 2.431517578125 0.6555000000000001 Q 2.416517578125 0.6555000000000001 2.399267578125 0.65475 Q 2.382017578125 0.654 2.367767578125 0.65175 Q 2.353517578125 0.6495000000000001 2.343767578125 0.6442500000000001 Q 2.334017578125 0.639 2.334017578125 0.63 Q 2.334017578125 0.6150000000000001 2.345267578125 0.6052500000000001 Q 2.356517578125 0.5955 2.385017578125 0.5895 Q 2.413517578125 0.5835 2.460767578125 0.58125 Q 2.508017578125 0.5790000000000001 2.580017578125 0.5790000000000001 Q 2.619017578125 0.5790000000000001 2.628017578125 0.5880000000000001 Q 2.637017578125 0.5970000000000001 2.638517578125 0.627 L 2.643017578125 0.7200000000000001 Q 2.676017578125 0.6495000000000001 2.742017578125 0.6112500000000001 Q 2.808017578125 0.5730000000000001 2.883017578125 0.5730000000000001 Q 2.916017578125 0.5730000000000001 2.955767578125 0.58425 Q 2.995517578125 0.5955 3.0300175781250003 0.62775 Q 3.064517578125 0.66 3.0870175781249998 0.7170000000000001 Q 3.109517578125 0.774 3.109517578125 0.8655 L 3.109517578125 1.212 M 3.39305859375 0.6495000000000001 Q 3.36455859375 0.6495000000000001 3.32855859375 0.651 Q 3.29255859375 0.6525000000000001 3.26555859375 0.6525000000000001 Q 3.25655859375 0.6525000000000001 3.23930859375 0.6435000000000001 Q 3.22205859375 0.6345000000000001 3.22205859375 0.6075 Q 3.22205859375 0.5865 3.23705859375 0.5767500000000001 Q 3.25205859375 0.5670000000000001 3.27305859375 0.5640000000000001 L 3.34955859375 0.5565 Q 3.37955859375 0.5535 3.38555859375 0.54225 Q 3.39155859375 0.531 3.39155859375 0.5055000000000001 Q 3.39155859375 0.4740000000000001 3.39230859375 0.43725 Q 3.39305859375 0.4005000000000001 3.40055859375 0.37050000000000005 Q 3.40805859375 0.3405 3.42455859375 0.3345 Q 3.4410585937500002 0.3285 3.44855859375 0.3285 Q 3.46805859375 0.3285 3.48305859375 0.33825000000000005 Q 3.49805859375 0.3480000000000001 3.49805859375 0.393 L 3.49805859375 0.5535 Q 3.50855859375 0.5535 3.53855859375 0.5527500000000001 Q 3.56855859375 0.552 3.60230859375 0.5505000000000001 Q 3.63605859375 0.549 3.66455859375 0.54825 Q 3.69305859375 0.5475000000000001 3.70205859375 0.5475000000000001 Q 3.72005859375 0.5475000000000001 3.73805859375 0.55725 Q 3.75605859375 0.5670000000000001 3.75605859375 0.5910000000000001 Q 3.75605859375 0.6120000000000001 3.74255859375 0.62175 Q 3.72905859375 0.6315000000000001 3.71555859375 0.6345000000000001 Q 3.66155859375 0.6405000000000001 3.6053085937500002 0.642 Q 3.54905859375 0.6435000000000001 3.49805859375 0.6465000000000001 L 3.49805859375 1.0275 Q 3.49805859375 1.0515 3.50105859375 1.0785 Q 3.50405859375 1.1055000000000001 3.51230859375 1.1287500000000001 Q 3.52055859375 1.1520000000000001 3.53630859375 1.167 Q 3.55205859375 1.1820000000000002 3.57905859375 1.1820000000000002 Q 3.60305859375 1.1820000000000002 3.61805859375 1.17375 Q 3.63305859375 1.1655 3.64355859375 1.1535 Q 3.65405859375 1.1415 3.66005859375 1.1280000000000001 Q 3.66605859375 1.1145 3.67055859375 1.1025 Q 3.67505859375 1.0905 3.67880859375 1.0785 Q 3.68255859375 1.0665 3.68855859375 1.05675 Q 3.69455859375 1.0470000000000002 3.70505859375 1.0410000000000001 Q 3.71555859375 1.0350000000000001 3.7335585937499998 1.0350000000000001 Q 3.74555859375 1.0350000000000001 3.75305859375 1.0410000000000001 Q 3.76055859375 1.0470000000000002 3.76430859375 1.0545 Q 3.76805859375 1.062 3.7695585937500002 1.0695000000000001 Q 3.77105859375 1.077 3.77105859375 1.08 Q 3.77105859375 1.101 3.75905859375 1.1340000000000001 Q 3.74705859375 1.167 3.72080859375 1.19775 Q 3.69455859375 1.2285000000000001 3.65405859375 1.25025 Q 3.61355859375 1.272 3.55805859375 1.272 Q 3.47255859375 1.272 3.43205859375 1.2105000000000001 Q 3.41705859375 1.1880000000000002 3.40880859375 1.16175 Q 3.40055859375 1.1355 3.39605859375 1.10775 Q 3.39155859375 1.08 3.39080859375 1.0545 Q 3.39005859375 1.0290000000000001 3.39005859375 1.008 L 3.39305859375 0.6495000000000001 M 4.33207177734375 0.801 Q 4.35757177734375 0.801 4.35757177734375 0.789 Q 4.35757177734375 0.7665000000000001 4.34557177734375 0.73875 Q 4.33357177734375 0.7110000000000001 4.31032177734375 0.6877500000000001 Q 4.28707177734375 0.6645000000000001 4.25107177734375 0.64875 Q 4.21507177734375 0.633 4.16707177734375 0.633 Q 4.12057177734375 0.633 4.08307177734375 0.64875 Q 4.04557177734375 0.6645000000000001 4.01857177734375 0.68925 Q 3.99157177734375 0.7140000000000001 3.97507177734375 0.74475 Q 3.95857177734375 0.7755000000000001 3.95257177734375 0.807 L 4.33207177734375 0.801 M 3.94657177734375 0.897 Q 3.94507177734375 0.9045000000000001 3.94432177734375 0.9127500000000001 Q 3.94357177734375 0.921 3.94357177734375 0.9285000000000001 Q 3.94357177734375 0.9735 3.95857177734375 1.0185 Q 3.97357177734375 1.0635000000000001 4.00282177734375 1.0995000000000001 Q 4.03207177734375 1.1355 4.07482177734375 1.1572500000000001 Q 4.11757177734375 1.179 4.1730717773437505 1.179 Q 4.23157177734375 1.179 4.27207177734375 1.161 Q 4.31257177734375 1.143 4.33732177734375 1.11525 Q 4.3620717773437505 1.0875000000000001 4.37332177734375 1.05525 Q 4.38457177734375 1.0230000000000001 4.38457177734375 0.996 Q 4.38457177734375 0.984 4.39432177734375 0.9660000000000001 Q 4.40407177734375 0.9480000000000001 4.43557177734375 0.9480000000000001 Q 4.45357177734375 0.9480000000000001 4.46707177734375 0.96075 Q 4.48057177734375 0.9735 4.48057177734375 0.996 Q 4.48057177734375 1.0485 4.46482177734375 1.0987500000000001 Q 4.44907177734375 1.149 4.41157177734375 1.1880000000000002 Q 4.37407177734375 1.227 4.30957177734375 1.2510000000000001 Q 4.24507177734375 1.2750000000000001 4.1490717773437495 1.2750000000000001 Q 4.07107177734375 1.2750000000000001 4.01182177734375 1.24875 Q 3.95257177734375 1.2225000000000001 3.91207177734375 1.1745 Q 3.87157177734375 1.1265 3.85132177734375 1.06125 Q 3.83107177734375 0.996 3.83107177734375 0.9165000000000001 Q 3.83107177734375 0.8295000000000001 3.85507177734375 0.7590000000000001 Q 3.87907177734375 0.6885 3.92407177734375 0.6405000000000001 Q 3.96907177734375 0.5925 4.03207177734375 0.56625 Q 4.09507177734375 0.54 4.17157177734375 0.54 Q 4.25407177734375 0.54 4.31107177734375 0.56925 Q 4.36807177734375 0.5985 4.40257177734375 0.63975 Q 4.43707177734375 0.681 4.45207177734375 0.7252500000000001 Q 4.46707177734375 0.7695000000000001 4.46707177734375 0.7995000000000001 Q 4.46707177734375 0.8340000000000001 4.45057177734375 0.8640000000000001 Q 4.43407177734375 0.8940000000000001 4.40407177734375 0.8940000000000001 Q 4.35757177734375 0.8940000000000001 4.29382177734375 0.89475 Q 4.23007177734375 0.8955000000000001 4.15807177734375 0.8955000000000001 Q 4.14307177734375 0.8955000000000001 4.11457177734375 0.8955000000000001 Q 4.08607177734375 0.8955000000000001 4.05457177734375 0.89625 Q 4.02307177734375 0.897 3.99382177734375 0.897 Q 3.96457177734375 0.897 3.94657177734375 0.897 M 5.143613525390625 0.7515000000000001 Q 5.143613525390625 0.777 5.138363525390625 0.801 Q 5.133113525390625 0.8250000000000001 5.121113525390625 0.84375 Q 5.109113525390625 0.8625 5.089613525390625 0.8745 Q 5.070113525390625 0.8865000000000001 5.040113525390625 0.8865000000000001 Q 5.014613525390625 0.8865000000000001 4.992863525390625 0.87225 Q 4.971113525390625 0.8580000000000001 4.971113525390625 0.8280000000000001 Q 4.971113525390625 0.8055000000000001 4.980863525390625 0.7957500000000001 Q 4.990613525390625 0.786 5.0033635253906255 0.78075 Q 5.016113525390625 0.7755000000000001 5.0258635253906245 0.7695000000000001 Q 5.035613525390625 0.7635000000000001 5.035613525390625 0.747 Q 5.035613525390625 0.7185 5.016113525390625 0.70725 Q 4.996613525390625 0.6960000000000001 4.966613525390625 0.6960000000000001 Q 4.939613525390625 0.6960000000000001 4.908113525390625 0.7080000000000001 Q 4.876613525390625 0.7200000000000001 4.849613525390625 0.7485 Q 4.822613525390625 0.777 4.804613525390625 0.8227500000000001 Q 4.786613525390625 0.8685 4.786613525390625 0.936 L 4.786613525390625 1.1640000000000001 L 4.867613525390625 1.1640000000000001 Q 4.945613525390625 1.1640000000000001 4.977113525390625 1.17675 Q 5.008613525390625 1.1895 5.008613525390625 1.215 Q 5.008613525390625 1.2555 4.963613525390625 1.2555 Q 4.941113525390625 1.2555 4.914113525390625 1.25475 Q 4.887113525390625 1.254 4.859363525390625 1.25325 Q 4.831613525390625 1.2525000000000002 4.804613525390625 1.2517500000000001 Q 4.777613525390625 1.2510000000000001 4.756613525390625 1.2510000000000001 Q 4.734113525390625 1.2510000000000001 4.717613525390625 1.2517500000000001 Q 4.701113525390625 1.2525000000000002 4.685363525390625 1.25325 Q 4.669613525390625 1.254 4.653863525390625 1.25475 Q 4.638113525390625 1.2555 4.617113525390625 1.2555 Q 4.593113525390625 1.2555 4.581113525390625 1.24275 Q 4.569113525390625 1.23 4.569113525390625 1.2135 Q 4.569113525390625 1.197 4.580363525390625 1.1820000000000002 Q 4.591613525390625 1.167 4.617113525390625 1.1640000000000001 Q 4.653113525390625 1.1595 4.664363525390625 1.1467500000000002 Q 4.675613525390625 1.1340000000000001 4.677113525390625 1.113 Q 4.678613525390625 1.0935000000000001 4.679363525390625 1.06275 Q 4.680113525390625 1.032 4.681613525390625 0.9817500000000001 Q 4.683113525390625 0.9315 4.683863525390625 0.8580000000000001 Q 4.684613525390625 0.7845 4.684613525390625 0.6765000000000001 Q 4.684613525390625 0.6555000000000001 4.662113525390625 0.6555000000000001 L 4.588613525390625 0.6555000000000001 Q 4.551113525390625 0.6555000000000001 4.532363525390625 0.6442500000000001 Q 4.513613525390625 0.633 4.513613525390625 0.621 Q 4.513613525390625 0.6075 4.536863525390625 0.5992500000000001 Q 4.560113525390625 0.5910000000000001 4.593113525390625 0.5865 Q 4.626113525390625 0.5820000000000001 4.663613525390625 0.5805 Q 4.701113525390625 0.5790000000000001 4.728113525390625 0.5790000000000001 Q 4.767113525390625 0.5790000000000001 4.780613525390625 0.5880000000000001 Q 4.794113525390625 0.5970000000000001 4.794113525390625 0.636 L 4.794113525390625 0.7095 Q 4.830113525390625 0.657 4.876613525390625 0.63075 Q 4.923113525390625 0.6045 4.975613525390625 0.6045 Q 5.013113525390625 0.6045 5.043863525390625 0.6172500000000001 Q 5.074613525390625 0.63 5.0971135253906255 0.65025 Q 5.1196135253906245 0.6705000000000001 5.131613525390625 0.6967500000000001 Q 5.143613525390625 0.7230000000000001 5.143613525390625 0.7515000000000001 M 5.7886376953125005 0.7320000000000001 Q 5.7781376953125 0.7545000000000001 5.7616376953125 0.798 Q 5.7451376953125 0.8415 5.7256376953125 0.89475 Q 5.7061376953125 0.9480000000000001 5.6858876953125 1.0050000000000001 Q 5.6656376953125 1.062 5.6483876953125 1.1107500000000001 Q 5.6311376953125 1.1595 5.6183876953125 1.194 Q 5.6056376953125 1.2285000000000001 5.6026376953125 1.2375 Q 5.5876376953125 1.2765 5.5456376953125 1.2765 Q 5.5336376953125 1.2765 5.5156376953125 1.2697500000000002 Q 5.4976376953125 1.2630000000000001 5.4901376953125 1.242 Q 5.4571376953125 1.137 5.4353876953124995 1.068 Q 5.4136376953125 0.9990000000000001 5.3948876953125 0.9435 Q 5.3761376953125 0.8880000000000001 5.3558876953125 0.83325 Q 5.3356376953125 0.7785 5.3071376953125 0.7005 Q 5.2996376953125 0.6795 5.2906376953125 0.66825 Q 5.2816376953125 0.657 5.2711376953125 0.651 Q 5.2606376953125 0.645 5.2486376953125 0.64275 Q 5.2366376953125 0.6405000000000001 5.2231376953125 0.639 Q 5.2006376953125 0.636 5.1788876953125 0.6292500000000001 Q 5.1571376953125 0.6225 5.1571376953125 0.6045 Q 5.1571376953125 0.5865 5.1736376953125 0.58125 Q 5.1901376953125 0.5760000000000001 5.2111376953125 0.5760000000000001 Q 5.2171376953125 0.5760000000000001 5.2531376953125 0.5760000000000001 Q 5.2891376953125 0.5760000000000001 5.3296376953125 0.57525 Q 5.3701376953125 0.5745 5.4046376953125 0.5745 Q 5.4391376953125 0.5745 5.4451376953125 0.5745 Q 5.4691376953125 0.5745 5.4856376953125 0.5797500000000001 Q 5.5021376953125 0.5850000000000001 5.5021376953125 0.6060000000000001 Q 5.5021376953125 0.6225 5.4871376953125 0.633 Q 5.4721376953125 0.6435000000000001 5.4496376953125 0.6435000000000001 Q 5.4466376953125 0.6435000000000001 5.4391376953125 0.6435000000000001 Q 5.4316376953125 0.6435000000000001 5.4248876953125 0.64575 Q 5.4181376953125 0.648 5.4128876953125 0.65175 Q 5.4076376953125 0.6555000000000001 5.4076376953125 0.663 Q 5.4076376953125 0.6675000000000001 5.4121376953125 0.68325 Q 5.4166376953125 0.6990000000000001 5.4308876953125 0.74475 Q 5.4451376953125 0.7905 5.4728876953125 0.8745 Q 5.5006376953125 0.9585000000000001 5.5486376953125 1.098 Q 5.5741376953125 1.0170000000000001 5.5966376953125 0.9495 Q 5.6191376953125 0.8820000000000001 5.6363876953125 0.8325 Q 5.6536376953125 0.783 5.6641376953125 0.7522500000000001 Q 5.6746376953125 0.7215 5.6746376953125 0.7125 Q 5.6746376953125 0.6975 5.6663876953125 0.6930000000000001 Q 5.6581376953125 0.6885 5.6326376953125 0.6885 Q 5.6206376953125 0.6885 5.6138876953125 0.6787500000000001 Q 5.6071376953125 0.669 5.6071376953125 0.6555000000000001 Q 5.6071376953125 0.6435000000000001 5.6123876953125 0.63675 Q 5.6176376953125 0.63 5.6333876953125 0.6262500000000001 Q 5.6491376953125 0.6225 5.6791376953125 0.62175 Q 5.7091376953125 0.621 5.7586376953125 0.621 Q 5.8291376953125 0.621 5.8688876953125 0.62175 Q 5.9086376953125 0.6225 5.9288876953125005 0.6262500000000001 Q 5.9491376953125 0.63 5.9543876953125 0.636 Q 5.9596376953125 0.642 5.9596376953125 0.6525000000000001 Q 5.9596376953125 0.6795 5.9281376953125005 0.684 Q 5.8966376953125 0.6885 5.8561376953125 0.6930000000000001 Q 5.8261376953125 0.6960000000000001 5.8118876953125 0.7035 Q 5.7976376953125 0.7110000000000001 5.7886376953125005 0.7320000000000001 M 6.246153076171875 1.1685 L 6.331653076171875 1.1685 Q 6.364653076171875 1.1685 6.384153076171875 1.1760000000000002 Q 6.403653076171875 1.1835 6.403653076171875 1.2135 Q 6.403653076171875 1.233 6.390153076171875 1.24425 Q 6.376653076171875 1.2555 6.358653076171875 1.2555 L 6.090153076171875 1.2555 Q 6.072153076171875 1.2555 6.053403076171875 1.25475 Q 6.034653076171875 1.254 6.020403076171875 1.25025 Q 6.006153076171875 1.2465000000000002 5.996403076171875 1.23825 Q 5.986653076171875 1.23 5.986653076171875 1.215 Q 5.986653076171875 1.2015 5.992653076171875 1.194 Q 5.998653076171875 1.1865 6.010653076171875 1.18275 Q 6.022653076171875 1.179 6.038403076171875 1.17675 Q 6.054153076171875 1.1745 6.075153076171875 1.1715 Q 6.108153076171875 1.167 6.120153076171875 1.16175 Q 6.132153076171875 1.1565 6.135153076171875 1.1400000000000001 Q 6.139653076171875 1.092 6.140403076171875 1.0357500000000002 Q 6.141153076171875 0.9795 6.141153076171875 0.936 Q 6.141153076171875 0.879 6.139653076171875 0.8265 Q 6.138153076171875 0.774 6.135153076171875 0.7170000000000001 Q 6.133653076171875 0.6990000000000001 6.129153076171875 0.6877500000000001 Q 6.124653076171875 0.6765000000000001 6.112653076171875 0.6765000000000001 Q 6.106653076171875 0.6765000000000001 6.089403076171875 0.678 Q 6.072153076171875 0.6795 6.053403076171875 0.68025 Q 6.034653076171875 0.681 6.018153076171875 0.6825 Q 6.001653076171875 0.684 5.995653076171875 0.684 Q 5.983653076171875 0.684 5.968653076171875 0.6765000000000001 Q 5.953653076171875 0.669 5.953653076171875 0.66 Q 5.953653076171875 0.642 5.961153076171875 0.633 Q 5.968653076171875 0.624 5.982903076171875 0.6195 Q 5.997153076171875 0.6150000000000001 6.017403076171875 0.6135 Q 6.037653076171875 0.6120000000000001 6.063153076171875 0.6090000000000001 Q 6.082653076171875 0.6075 6.105153076171875 0.6060000000000001 Q 6.127653076171875 0.6045 6.149403076171875 0.6030000000000001 Q 6.171153076171875 0.6015 6.189153076171875 0.6015 Q 6.207153076171875 0.6015 6.219153076171875 0.6015 Q 6.237153076171875 0.6015 6.241653076171875 0.61575 Q 6.246153076171875 0.63 6.246153076171875 0.654 L 6.246153076171875 1.1685 M 6.094653076171875 0.38550000000000006 Q 6.094653076171875 0.375 6.099903076171875 0.35925000000000007 Q 6.105153076171875 0.3435 6.114903076171875 0.33000000000000007 Q 6.124653076171875 0.3165 6.141153076171875 0.3067500000000001 Q 6.157653076171875 0.29700000000000004 6.180153076171875 0.29700000000000004 Q 6.210153076171875 0.29700000000000004 6.232653076171875 0.3187500000000001 Q 6.255153076171875 0.3405 6.255153076171875 0.37950000000000006 Q 6.255153076171875 0.4335 6.225903076171875 0.4545 Q 6.196653076171875 0.47550000000000003 6.169653076171875 0.47550000000000003 Q 6.138153076171875 0.47550000000000003 6.116403076171875 0.45000000000000007 Q 6.094653076171875 0.4245 6.094653076171875 0.38550000000000006 M 6.934641357421875 0.801 Q 6.960141357421875 0.801 6.960141357421875 0.789 Q 6.960141357421875 0.7665000000000001 6.948141357421875 0.73875 Q 6.936141357421875 0.7110000000000001 6.912891357421875 0.6877500000000001 Q 6.889641357421875 0.6645000000000001 6.853641357421875 0.64875 Q 6.817641357421875 0.633 6.769641357421875 0.633 Q 6.723141357421875 0.633 6.685641357421875 0.64875 Q 6.648141357421875 0.6645000000000001 6.621141357421875 0.68925 Q 6.594141357421875 0.7140000000000001 6.577641357421875 0.74475 Q 6.561141357421875 0.7755000000000001 6.555141357421875 0.807 L 6.934641357421875 0.801 M 6.549141357421875 0.897 Q 6.547641357421875 0.9045000000000001 6.546891357421875 0.9127500000000001 Q 6.546141357421875 0.921 6.546141357421875 0.9285000000000001 Q 6.546141357421875 0.9735 6.561141357421875 1.0185 Q 6.576141357421875 1.0635000000000001 6.605391357421875 1.0995000000000001 Q 6.634641357421875 1.1355 6.677391357421875 1.1572500000000001 Q 6.720141357421875 1.179 6.7756413574218755 1.179 Q 6.834141357421875 1.179 6.874641357421875 1.161 Q 6.915141357421875 1.143 6.939891357421875 1.11525 Q 6.9646413574218755 1.0875000000000001 6.975891357421875 1.05525 Q 6.987141357421875 1.0230000000000001 6.987141357421875 0.996 Q 6.987141357421875 0.984 6.996891357421875 0.9660000000000001 Q 7.006641357421875 0.9480000000000001 7.038141357421875 0.9480000000000001 Q 7.056141357421875 0.9480000000000001 7.069641357421875 0.96075 Q 7.083141357421875 0.9735 7.083141357421875 0.996 Q 7.083141357421875 1.0485 7.067391357421875 1.0987500000000001 Q 7.051641357421875 1.149 7.014141357421875 1.1880000000000002 Q 6.976641357421875 1.227 6.912141357421875 1.2510000000000001 Q 6.847641357421875 1.2750000000000001 6.7516413574218745 1.2750000000000001 Q 6.673641357421875 1.2750000000000001 6.614391357421875 1.24875 Q 6.555141357421875 1.2225000000000001 6.514641357421875 1.1745 Q 6.474141357421875 1.1265 6.453891357421875 1.06125 Q 6.433641357421875 0.996 6.433641357421875 0.9165000000000001 Q 6.433641357421875 0.8295000000000001 6.457641357421875 0.7590000000000001 Q 6.481641357421875 0.6885 6.526641357421875 0.6405000000000001 Q 6.571641357421875 0.5925 6.634641357421875 0.56625 Q 6.697641357421875 0.54 6.774141357421875 0.54 Q 6.856641357421875 0.54 6.913641357421875 0.56925 Q 6.970641357421875 0.5985 7.005141357421875 0.63975 Q 7.039641357421875 0.681 7.054641357421875 0.7252500000000001 Q 7.069641357421875 0.7695000000000001 7.069641357421875 0.7995000000000001 Q 7.069641357421875 0.8340000000000001 7.053141357421875 0.8640000000000001 Q 7.036641357421875 0.8940000000000001 7.006641357421875 0.8940000000000001 Q 6.960141357421875 0.8940000000000001 6.896391357421875 0.89475 Q 6.832641357421875 0.8955000000000001 6.760641357421875 0.8955000000000001 Q 6.745641357421875 0.8955000000000001 6.717141357421875 0.8955000000000001 Q 6.688641357421875 0.8955000000000001 6.657141357421875 0.89625 Q 6.625641357421875 0.897 6.596391357421875 0.897 Q 6.567141357421875 0.897 6.549141357421875 0.897 M 7.873682373046875 1.113 Q 7.897682373046875 1.0575 7.921682373046875 0.9937500000000001 Q 7.945682373046875 0.93 7.964432373046875 0.8745 Q 7.983182373046875 0.8190000000000001 7.995182373046875 0.77775 Q 8.007182373046875 0.7365 8.007182373046875 0.7260000000000001 Q 8.007182373046875 0.7005 7.981682373046875 0.7005 L 7.966682373046875 0.7005 Q 7.947182373046875 0.7005 7.939682373046875 0.6930000000000001 Q 7.932182373046875 0.6855 7.932182373046875 0.6735000000000001 Q 7.932182373046875 0.6645000000000001 7.9374323730468745 0.65625 Q 7.942682373046875 0.648 7.9614323730468755 0.642 Q 7.980182373046875 0.636 8.016932373046876 0.633 Q 8.053682373046875 0.63 8.116682373046874 0.63 Q 8.175182373046875 0.63 8.210432373046874 0.6315000000000001 Q 8.245682373046876 0.633 8.264432373046875 0.63675 Q 8.283182373046875 0.6405000000000001 8.289182373046875 0.6472500000000001 Q 8.295182373046876 0.654 8.295182373046876 0.6645000000000001 Q 8.295182373046876 0.6915 8.268182373046875 0.6960000000000001 Q 8.241182373046875 0.7005 8.211182373046874 0.7005 Q 8.176682373046875 0.7005 8.166182373046874 0.7035 Q 8.155682373046876 0.7065 8.146682373046875 0.7140000000000001 Q 8.140682373046875 0.7185 8.128682373046875 0.7462500000000001 Q 8.116682373046874 0.774 8.092682373046875 0.8347500000000001 Q 8.068682373046874 0.8955000000000001 8.029682373046874 0.9922500000000001 Q 7.990682373046875 1.089 7.932182373046875 1.233 Q 7.920182373046875 1.26 7.902182373046875 1.2705 Q 7.884182373046875 1.2810000000000001 7.872182373046875 1.2810000000000001 Q 7.846682373046875 1.2810000000000001 7.833182373046875 1.26825 Q 7.819682373046875 1.2555 7.809182373046875 1.2135 L 7.696682373046875 0.7380000000000001 L 7.542182373046875 1.212 Q 7.534682373046875 1.2315 7.521932373046875 1.2375 Q 7.509182373046875 1.2435 7.488182373046875 1.2435 Q 7.467182373046875 1.2435 7.455932373046875 1.23525 Q 7.444682373046875 1.227 7.429682373046875 1.2075 L 7.230182373046875 0.6435000000000001 Q 7.227182373046875 0.6345000000000001 7.221932373046875 0.6315000000000001 Q 7.216682373046875 0.6285000000000001 7.203182373046875 0.6285000000000001 Q 7.161182373046875 0.6285000000000001 7.133432373046875 0.62475 Q 7.105682373046875 0.621 7.105682373046875 0.5955 Q 7.105682373046875 0.5700000000000001 7.130432373046875 0.5640000000000001 Q 7.155182373046875 0.558 7.203182373046875 0.558 L 7.389182373046875 0.558 Q 7.432682373046875 0.558 7.453682373046875 0.56325 Q 7.474682373046875 0.5685 7.474682373046875 0.5940000000000001 Q 7.474682373046875 0.6285000000000001 7.417682373046875 0.6285000000000001 L 7.360682373046875 0.6285000000000001 Q 7.339682373046875 0.6285000000000001 7.339682373046875 0.6435000000000001 Q 7.339682373046875 0.648 7.344932373046875 0.666 Q 7.350182373046875 0.684 7.365932373046875 0.7312500000000001 Q 7.381682373046875 0.7785 7.411682373046875 0.8632500000000001 Q 7.441682373046875 0.9480000000000001 7.4926823730468755 1.089 Q 7.558682373046875 0.8925000000000001 7.593932373046875 0.777 Q 7.629182373046875 0.6615000000000001 7.639682373046875 0.636 Q 7.651682373046875 0.6195 7.667432373046875 0.61275 Q 7.683182373046875 0.6060000000000001 7.7026823730468745 0.6060000000000001 Q 7.719182373046875 0.6060000000000001 7.732682373046875 0.6120000000000001 Q 7.746182373046875 0.618 7.759682373046875 0.636 Q 7.761182373046875 0.642 7.762682373046875 0.645 Q 7.764182373046875 0.648 7.767182373046875 0.6607500000000001 Q 7.770182373046875 0.6735000000000001 7.776182373046875 0.7005 Q 7.782182373046875 0.7275 7.794182373046875 0.7785 Q 7.806182373046875 0.8295000000000001 7.824932373046875 0.9105000000000001 Q 7.8436823730468745 0.9915 7.873682373046875 1.113 M 10.054708740234375 0.15600000000000014 Q 10.008208740234375 0.1605000000000001 9.972208740234375 0.16200000000000014 Q 9.936208740234376 0.16349999999999998 9.889708740234376 0.16799999999999993 Q 9.856708740234374 0.17100000000000004 9.849958740234374 0.19274999999999998 Q 9.843208740234376 0.21450000000000014 9.843208740234376 0.23849999999999993 Q 9.843208740234376 0.30300000000000005 9.840208740234376 0.41100000000000003 Q 9.837208740234376 0.519 9.837208740234376 0.6855 Q 9.837208740234376 0.75 9.838708740234376 0.8325 Q 9.840208740234376 0.915 9.840958740234376 0.9952500000000001 Q 9.841708740234376 1.0755000000000001 9.843208740234376 1.14225 Q 9.844708740234374 1.209 9.844708740234374 1.2405000000000002 L 10.012708740234375 1.2405000000000002 Q 10.029208740234376 1.2405000000000002 10.043458740234374 1.248 Q 10.057708740234375 1.2555 10.057708740234375 1.278 Q 10.057708740234375 1.3170000000000002 10.027708740234376 1.3170000000000002 L 9.690208740234375 1.3170000000000002 Q 9.669208740234374 1.3170000000000002 9.648958740234375 1.3102500000000001 Q 9.628708740234375 1.3035 9.628708740234375 1.278 Q 9.628708740234375 1.2555 9.643708740234375 1.25025 Q 9.658708740234374 1.245 9.672208740234375 1.245 Q 9.679708740234375 1.245 9.690208740234375 1.24425 Q 9.700708740234376 1.2435 9.709708740234376 1.23675 Q 9.718708740234375 1.23 9.724708740234375 1.21575 Q 9.730708740234375 1.2015 9.730708740234375 1.1760000000000002 L 9.730708740234375 0.3075 Q 9.676708740234375 0.4590000000000001 9.622708740234375 0.60675 Q 9.568708740234374 0.7545000000000001 9.522208740234374 0.8820000000000001 Q 9.475708740234374 1.0095 9.440458740234375 1.1047500000000001 Q 9.405208740234375 1.2 9.390208740234375 1.245 Q 9.372208740234376 1.2975 9.330208740234376 1.2975 Q 9.313708740234375 1.2975 9.302458740234375 1.29 Q 9.291208740234374 1.2825 9.282208740234376 1.272 Q 9.273208740234375 1.2615 9.267958740234375 1.25025 Q 9.262708740234375 1.239 9.259708740234375 1.2315 Q 9.238708740234376 1.1745 9.207208740234375 1.0942500000000002 Q 9.175708740234375 1.014 9.138208740234376 0.924 Q 9.100708740234374 0.8340000000000001 9.060958740234375 0.7395 Q 9.021208740234375 0.645 8.985208740234375 0.5587500000000001 Q 8.949208740234376 0.47250000000000003 8.919958740234375 0.39975000000000005 Q 8.890708740234375 0.32700000000000007 8.874208740234375 0.2805000000000001 L 8.874208740234375 1.179 L 9.024208740234375 1.179 Q 9.040708740234376 1.179 9.054958740234374 1.1872500000000001 Q 9.069208740234375 1.1955 9.069208740234375 1.221 Q 9.069208740234375 1.2345000000000002 9.061708740234375 1.245 Q 9.054208740234374 1.2555 9.039208740234375 1.2555 L 8.700208740234375 1.2555 Q 8.679208740234374 1.2555 8.658958740234375 1.2495 Q 8.638708740234375 1.2435 8.638708740234375 1.221 Q 8.638708740234375 1.1955 8.653708740234375 1.1895 Q 8.668708740234376 1.1835 8.682208740234374 1.1835 Q 8.691208740234375 1.1835 8.703208740234375 1.18275 Q 8.715208740234376 1.1820000000000002 8.726458740234374 1.1752500000000001 Q 8.737708740234375 1.1685 8.745958740234375 1.15425 Q 8.754208740234375 1.1400000000000001 8.754208740234375 1.1145 Q 8.761708740234376 1.0125000000000002 8.764708740234376 0.903 Q 8.767708740234376 0.7935000000000001 8.767708740234376 0.681 Q 8.767708740234376 0.552 8.765458740234376 0.4305 Q 8.763208740234376 0.30900000000000005 8.763208740234376 0.1875 Q 8.763208740234376 0.15450000000000008 8.738458740234375 0.14400000000000013 Q 8.713708740234376 0.13349999999999995 8.683708740234374 0.13050000000000006 Q 8.653708740234375 0.12749999999999995 8.628958740234374 0.12224999999999997 Q 8.604208740234375 0.11699999999999999 8.604208740234375 0.09299999999999997 Q 8.604208740234375 0.06750000000000012 8.625958740234376 0.06075000000000008 Q 8.647708740234375 0.05400000000000005 8.691208740234375 0.05400000000000005 L 8.878708740234375 0.05400000000000005 Q 8.899708740234376 0.05400000000000005 8.910958740234374 0.06374999999999997 Q 8.922208740234375 0.07350000000000012 8.934208740234375 0.1140000000000001 Q 8.947708740234376 0.15900000000000003 8.976958740234375 0.23775000000000013 Q 9.006208740234374 0.3165 9.045208740234376 0.4125000000000001 Q 9.084208740234375 0.5085000000000001 9.126958740234375 0.6135 Q 9.169708740234375 0.7185 9.210208740234375 0.81825 Q 9.250708740234375 0.918 9.283708740234374 1.0035 Q 9.316708740234375 1.089 9.334708740234374 1.1445 Q 9.355708740234375 1.089 9.384958740234374 1.00875 Q 9.414208740234375 0.9285000000000001 9.447958740234375 0.8355000000000001 Q 9.481708740234374 0.7425 9.516208740234376 0.6435000000000001 Q 9.550708740234375 0.5445000000000001 9.583708740234375 0.45225000000000004 Q 9.616708740234374 0.36 9.645208740234375 0.2805000000000001 Q 9.673708740234375 0.20100000000000007 9.693208740234375 0.14700000000000002 Q 9.703708740234376 0.1260000000000001 9.709708740234376 0.1140000000000001 Q 9.715708740234374 0.10200000000000009 9.726958740234375 0.09525000000000006 Q 9.738208740234375 0.08850000000000002 9.759208740234374 0.08624999999999994 Q 9.780208740234375 0.08400000000000007 9.822208740234375 0.08400000000000007 L 10.044208740234374 0.08400000000000007 Q 10.068208740234375 0.08400000000000007 10.089958740234374 0.08850000000000002 Q 10.111708740234375 0.09299999999999997 10.111708740234375 0.11850000000000005 Q 10.111708740234375 0.14400000000000013 10.094458740234375 0.14700000000000002 Q 10.077208740234376 0.15000000000000013 10.054708740234375 0.15600000000000014 M 10.7882080078125 0.906 Q 10.7882080078125 0.9975 10.7552080078125 1.0665 Q 10.7222080078125 1.1355 10.670458007812499 1.1812500000000001 Q 10.6187080078125 1.227 10.5542080078125 1.2495 Q 10.4897080078125 1.272 10.4267080078125 1.272 Q 10.3502080078125 1.272 10.2872080078125 1.2457500000000001 Q 10.2242080078125 1.2195 10.1784580078125 1.1715 Q 10.1327080078125 1.1235 10.1072080078125 1.05675 Q 10.0817080078125 0.99 10.0817080078125 0.9105000000000001 Q 10.0817080078125 0.8325 10.1072080078125 0.76575 Q 10.1327080078125 0.6990000000000001 10.1799580078125 0.651 Q 10.2272080078125 0.6030000000000001 10.2939580078125 0.57525 Q 10.3607080078125 0.5475000000000001 10.4447080078125 0.5475000000000001 Q 10.5287080078125 0.5475000000000001 10.5924580078125 0.5767500000000001 Q 10.6562080078125 0.6060000000000001 10.6997080078125 0.6555000000000001 Q 10.7432080078125 0.7050000000000001 10.7657080078125 0.7695000000000001 Q 10.7882080078125 0.8340000000000001 10.7882080078125 0.906 M 10.4432080078125 0.6375000000000001 Q 10.3937080078125 0.6375000000000001 10.3487080078125 0.6555000000000001 Q 10.3037080078125 0.6735000000000001 10.2692080078125 0.7080000000000001 Q 10.2347080078125 0.7425 10.2144580078125 0.7935000000000001 Q 10.1942080078125 0.8445 10.1942080078125 0.909 Q 10.1942080078125 0.978 10.2159580078125 1.0290000000000001 Q 10.2377080078125 1.08 10.2722080078125 1.11375 Q 10.3067080078125 1.1475 10.3487080078125 1.1640000000000001 Q 10.3907080078125 1.1805 10.4297080078125 1.1805 Q 10.4687080078125 1.1805 10.5122080078125 1.1640000000000001 Q 10.5557080078125 1.1475 10.5932080078125 1.11375 Q 10.6307080078125 1.08 10.6547080078125 1.0275 Q 10.6787080078125 0.9750000000000001 10.6787080078125 0.903 Q 10.6787080078125 0.8445 10.6614580078125 0.7957500000000001 Q 10.6442080078125 0.747 10.6134580078125 0.71175 Q 10.5827080078125 0.6765000000000001 10.5392080078125 0.657 Q 10.4957080078125 0.6375000000000001 10.4432080078125 0.6375000000000001 M 11.404695556640625 0.6135 Q 11.403195556640625 0.5970000000000001 11.402445556640625 0.5745 Q 11.401695556640625 0.552 11.401695556640625 0.531 Q 11.401695556640625 0.5145000000000001 11.412195556640626 0.50175 Q 11.422695556640624 0.489 11.448195556640625 0.489 Q 11.473695556640624 0.489 11.485695556640625 0.5025000000000001 Q 11.497695556640625 0.516 11.497695556640625 0.5385000000000001 Q 11.497695556640625 0.5595 11.497695556640625 0.5940000000000001 Q 11.497695556640625 0.6285000000000001 11.496945556640625 0.66525 Q 11.496195556640625 0.7020000000000001 11.496195556640625 0.7365 Q 11.496195556640625 0.7710000000000001 11.496195556640625 0.7905 Q 11.496195556640625 0.8025 11.480445556640625 0.8130000000000001 Q 11.464695556640624 0.8235000000000001 11.442195556640625 0.8235000000000001 Q 11.430195556640625 0.8235000000000001 11.415945556640626 0.8160000000000001 Q 11.401695556640625 0.8085 11.401695556640625 0.792 Q 11.401695556640625 0.7140000000000001 11.361195556640626 0.66825 Q 11.320695556640626 0.6225 11.220195556640626 0.6225 Q 11.170695556640625 0.6225 11.127945556640626 0.6442500000000001 Q 11.085195556640626 0.666 11.055195556640625 0.7050000000000001 Q 11.025195556640625 0.744 11.007945556640625 0.79725 Q 10.990695556640626 0.8505 10.990695556640626 0.915 Q 10.990695556640626 1.0335 11.046945556640624 1.1025 Q 11.103195556640625 1.1715 11.205195556640625 1.1715 Q 11.292195556640625 1.1715 11.350695556640625 1.1400000000000001 Q 11.409195556640626 1.1085 11.436195556640625 1.0635000000000001 Q 11.451195556640625 1.0395 11.463945556640624 1.032 Q 11.476695556640625 1.0245 11.487195556640625 1.0245 Q 11.503695556640626 1.0245 11.517945556640624 1.0335 Q 11.532195556640625 1.0425 11.532195556640625 1.0635000000000001 Q 11.532195556640625 1.0755000000000001 11.528445556640625 1.08375 Q 11.524695556640625 1.092 11.517195556640624 1.104 Q 11.412195556640626 1.2645 11.211195556640625 1.2645 Q 11.131695556640626 1.2645 11.069445556640625 1.2375 Q 11.007195556640625 1.2105000000000001 10.964445556640625 1.1632500000000001 Q 10.921695556640625 1.116 10.898445556640626 1.053 Q 10.875195556640625 0.99 10.875195556640625 0.918 Q 10.875195556640625 0.8370000000000001 10.901445556640626 0.7665000000000001 Q 10.927695556640625 0.6960000000000001 10.974195556640625 0.6442500000000001 Q 11.020695556640625 0.5925 11.085195556640626 0.5625 Q 11.149695556640625 0.5325000000000001 11.224695556640626 0.5325000000000001 Q 11.281695556640624 0.5325000000000001 11.326695556640624 0.54825 Q 11.371695556640624 0.5640000000000001 11.404695556640625 0.6135 M 11.77965966796875 0.8595 Q 11.86065966796875 0.783 11.91240966796875 0.7350000000000001 Q 11.96415966796875 0.687 11.96415966796875 0.675 Q 11.96415966796875 0.6675000000000001 11.95965966796875 0.666 Q 11.95515966796875 0.6645000000000001 11.95215966796875 0.6645000000000001 L 11.94165966796875 0.6645000000000001 Q 11.93565966796875 0.6645000000000001 11.92290966796875 0.65925 Q 11.91015966796875 0.654 11.91015966796875 0.6375000000000001 Q 11.91015966796875 0.6150000000000001 11.94615966796875 0.6045 Q 11.98215966796875 0.5940000000000001 12.03765966796875 0.5940000000000001 Q 12.17565966796875 0.5940000000000001 12.22965966796875 0.6030000000000001 Q 12.28365966796875 0.6120000000000001 12.28365966796875 0.627 Q 12.28365966796875 0.639 12.27615966796875 0.6465000000000001 Q 12.26865966796875 0.654 12.25140966796875 0.6585000000000001 Q 12.23415966796875 0.663 12.20490966796875 0.666 Q 12.17565966796875 0.669 12.13215966796875 0.672 Q 12.102159667968749 0.675 12.08565966796875 0.6915 L 11.91465966796875 0.8535 Q 11.96415966796875 0.8535 12.00015966796875 0.8640000000000001 Q 12.03615966796875 0.8745 12.05865966796875 0.90075 Q 12.08115966796875 0.927 12.09240966796875 0.9712500000000001 Q 12.10365966796875 1.0155 12.10365966796875 1.0815000000000001 L 12.10365966796875 1.1535 Q 12.10365966796875 1.1925000000000001 12.10815966796875 1.21425 Q 12.11265966796875 1.236 12.11940966796875 1.248 Q 12.12615966796875 1.26 12.13365966796875 1.2630000000000001 Q 12.14115966796875 1.266 12.14715966796875 1.266 Q 12.15615966796875 1.266 12.16515966796875 1.26 Q 12.17415966796875 1.254 12.17415966796875 1.2375 Q 12.17415966796875 1.1865 12.22365966796875 1.1865 Q 12.24915966796875 1.1865 12.25740966796875 1.20375 Q 12.26565966796875 1.221 12.26565966796875 1.242 Q 12.26565966796875 1.2915 12.22815966796875 1.32675 Q 12.19065966796875 1.362 12.13365966796875 1.362 Q 12.07065966796875 1.362 12.03465966796875 1.32075 Q 11.99865966796875 1.2795 11.99865966796875 1.1805 L 11.99865966796875 1.0815000000000001 Q 11.99865966796875 1.0335 11.99115966796875 1.0035 Q 11.98365966796875 0.9735 11.96565966796875 0.95625 Q 11.94765966796875 0.9390000000000001 11.91765966796875 0.93225 Q 11.88765966796875 0.9255 11.84265966796875 0.9255 L 11.77965966796875 0.978 L 11.77965966796875 1.179 L 11.87115966796875 1.179 Q 11.90565966796875 1.179 11.92215966796875 1.194 Q 11.93865966796875 1.209 11.93865966796875 1.233 Q 11.93865966796875 1.2525000000000002 11.92365966796875 1.2585 Q 11.90865966796875 1.2645 11.89065966796875 1.2645 Q 11.85765966796875 1.2645 11.820909667968749 1.2630000000000001 Q 11.78415966796875 1.2615 11.72715966796875 1.2615 Q 11.70315966796875 1.2615 11.67090966796875 1.2630000000000001 Q 11.63865966796875 1.2645 11.61765966796875 1.2645 Q 11.59215966796875 1.2645 11.57265966796875 1.2570000000000001 Q 11.55315966796875 1.2495 11.55315966796875 1.2255 Q 11.55315966796875 1.2045000000000001 11.57490966796875 1.19625 Q 11.59665966796875 1.1880000000000002 11.64915966796875 1.1760000000000002 Q 11.66265966796875 1.173 11.66640966796875 1.1572500000000001 Q 11.67015966796875 1.1415 11.67015966796875 1.098 Q 11.67015966796875 1.0515 11.67090966796875 1.02225 Q 11.67165966796875 0.9930000000000001 11.67240966796875 0.9705 Q 11.67315966796875 0.9480000000000001 11.67390966796875 0.927 Q 11.67465966796875 0.906 11.67540966796875 0.8775000000000001 Q 11.67615966796875 0.849 11.67690966796875 0.807 Q 11.67765966796875 0.7650000000000001 11.67765966796875 0.7005 Q 11.67765966796875 0.5925 11.67690966796875 0.50775 Q 11.67615966796875 0.42300000000000004 11.67465966796875 0.35625000000000007 Q 11.67315966796875 0.2895000000000001 11.67240966796875 0.23924999999999996 Q 11.67165966796875 0.18900000000000006 11.67165966796875 0.14850000000000008 Q 11.67165966796875 0.1140000000000001 11.63865966796875 0.1140000000000001 L 11.56365966796875 0.1140000000000001 Q 11.54565966796875 0.1140000000000001 11.52615966796875 0.1080000000000001 Q 11.50665966796875 0.10200000000000009 11.50665966796875 0.08400000000000007 Q 11.50665966796875 0.06299999999999994 11.56215966796875 0.046499999999999986 Q 11.61765966796875 0.030000000000000027 11.74215966796875 0.030000000000000027 Q 11.77965966796875 0.030000000000000027 11.77965966796875 0.07350000000000012 L 11.77965966796875 0.8595 M 12.801157470703124 0.801 Q 12.826657470703125 0.801 12.826657470703125 0.789 Q 12.826657470703125 0.7665000000000001 12.814657470703125 0.73875 Q 12.802657470703124 0.7110000000000001 12.779407470703125 0.6877500000000001 Q 12.756157470703124 0.6645000000000001 12.720157470703125 0.64875 Q 12.684157470703125 0.633 12.636157470703125 0.633 Q 12.589657470703125 0.633 12.552157470703126 0.64875 Q 12.514657470703124 0.6645000000000001 12.487657470703125 0.68925 Q 12.460657470703126 0.7140000000000001 12.444157470703125 0.74475 Q 12.427657470703124 0.7755000000000001 12.421657470703124 0.807 L 12.801157470703124 0.801 M 12.415657470703126 0.897 Q 12.414157470703126 0.9045000000000001 12.413407470703126 0.9127500000000001 Q 12.412657470703126 0.921 12.412657470703126 0.9285000000000001 Q 12.412657470703126 0.9735 12.427657470703124 1.0185 Q 12.442657470703125 1.0635000000000001 12.471907470703124 1.0995000000000001 Q 12.501157470703125 1.1355 12.543907470703125 1.1572500000000001 Q 12.586657470703125 1.179 12.642157470703125 1.179 Q 12.700657470703124 1.179 12.741157470703126 1.161 Q 12.781657470703125 1.143 12.806407470703125 1.11525 Q 12.831157470703126 1.0875000000000001 12.842407470703126 1.05525 Q 12.853657470703125 1.0230000000000001 12.853657470703125 0.996 Q 12.853657470703125 0.984 12.863407470703125 0.9660000000000001 Q 12.873157470703125 0.9480000000000001 12.904657470703125 0.9480000000000001 Q 12.922657470703125 0.9480000000000001 12.936157470703126 0.96075 Q 12.949657470703125 0.9735 12.949657470703125 0.996 Q 12.949657470703125 1.0485 12.933907470703126 1.0987500000000001 Q 12.918157470703125 1.149 12.880657470703126 1.1880000000000002 Q 12.843157470703124 1.227 12.778657470703125 1.2510000000000001 Q 12.714157470703125 1.2750000000000001 12.618157470703125 1.2750000000000001 Q 12.540157470703125 1.2750000000000001 12.480907470703125 1.24875 Q 12.421657470703124 1.2225000000000001 12.381157470703124 1.1745 Q 12.340657470703125 1.1265 12.320407470703126 1.06125 Q 12.300157470703125 0.996 12.300157470703125 0.9165000000000001 Q 12.300157470703125 0.8295000000000001 12.324157470703126 0.7590000000000001 Q 12.348157470703125 0.6885 12.393157470703125 0.6405000000000001 Q 12.438157470703125 0.5925 12.501157470703125 0.56625 Q 12.564157470703124 0.54 12.640657470703125 0.54 Q 12.723157470703125 0.54 12.780157470703125 0.56925 Q 12.837157470703126 0.5985 12.871657470703125 0.63975 Q 12.906157470703125 0.681 12.921157470703125 0.7252500000000001 Q 12.936157470703126 0.7695000000000001 12.936157470703126 0.7995000000000001 Q 12.936157470703126 0.8340000000000001 12.919657470703125 0.8640000000000001 Q 12.903157470703125 0.8940000000000001 12.873157470703125 0.8940000000000001 Q 12.826657470703125 0.8940000000000001 12.762907470703125 0.89475 Q 12.699157470703126 0.8955000000000001 12.627157470703125 0.8955000000000001 Q 12.612157470703124 0.8955000000000001 12.583657470703125 0.8955000000000001 Q 12.555157470703126 0.8955000000000001 12.523657470703125 0.89625 Q 12.492157470703125 0.897 12.462907470703126 0.897 Q 12.433657470703125 0.897 12.415657470703126 0.897 M 13.61269921875 0.7515000000000001 Q 13.61269921875 0.777 13.60744921875 0.801 Q 13.60219921875 0.8250000000000001 13.59019921875 0.84375 Q 13.578199218750001 0.8625 13.55869921875 0.8745 Q 13.53919921875 0.8865000000000001 13.50919921875 0.8865000000000001 Q 13.48369921875 0.8865000000000001 13.46194921875 0.87225 Q 13.44019921875 0.8580000000000001 13.44019921875 0.8280000000000001 Q 13.44019921875 0.8055000000000001 13.44994921875 0.7957500000000001 Q 13.45969921875 0.786 13.47244921875 0.78075 Q 13.48519921875 0.7755000000000001 13.49494921875 0.7695000000000001 Q 13.50469921875 0.7635000000000001 13.50469921875 0.747 Q 13.50469921875 0.7185 13.48519921875 0.70725 Q 13.46569921875 0.6960000000000001 13.43569921875 0.6960000000000001 Q 13.40869921875 0.6960000000000001 13.37719921875 0.7080000000000001 Q 13.34569921875 0.7200000000000001 13.31869921875 0.7485 Q 13.29169921875 0.777 13.27369921875 0.8227500000000001 Q 13.25569921875 0.8685 13.25569921875 0.936 L 13.25569921875 1.1640000000000001 L 13.33669921875 1.1640000000000001 Q 13.41469921875 1.1640000000000001 13.44619921875 1.17675 Q 13.47769921875 1.1895 13.47769921875 1.215 Q 13.47769921875 1.2555 13.43269921875 1.2555 Q 13.41019921875 1.2555 13.38319921875 1.25475 Q 13.35619921875 1.254 13.32844921875 1.25325 Q 13.30069921875 1.2525000000000002 13.27369921875 1.2517500000000001 Q 13.24669921875 1.2510000000000001 13.22569921875 1.2510000000000001 Q 13.20319921875 1.2510000000000001 13.18669921875 1.2517500000000001 Q 13.17019921875 1.2525000000000002 13.15444921875 1.25325 Q 13.13869921875 1.254 13.12294921875 1.25475 Q 13.10719921875 1.2555 13.08619921875 1.2555 Q 13.06219921875 1.2555 13.05019921875 1.24275 Q 13.03819921875 1.23 13.03819921875 1.2135 Q 13.03819921875 1.197 13.04944921875 1.1820000000000002 Q 13.06069921875 1.167 13.08619921875 1.1640000000000001 Q 13.12219921875 1.1595 13.13344921875 1.1467500000000002 Q 13.14469921875 1.1340000000000001 13.14619921875 1.113 Q 13.14769921875 1.0935000000000001 13.14844921875 1.06275 Q 13.14919921875 1.032 13.15069921875 0.9817500000000001 Q 13.15219921875 0.9315 13.15294921875 0.8580000000000001 Q 13.15369921875 0.7845 13.15369921875 0.6765000000000001 Q 13.15369921875 0.6555000000000001 13.13119921875 0.6555000000000001 L 13.05769921875 0.6555000000000001 Q 13.02019921875 0.6555000000000001 13.00144921875 0.6442500000000001 Q 12.98269921875 0.633 12.98269921875 0.621 Q 12.98269921875 0.6075 13.00594921875 0.5992500000000001 Q 13.02919921875 0.5910000000000001 13.06219921875 0.5865 Q 13.09519921875 0.5820000000000001 13.13269921875 0.5805 Q 13.17019921875 0.5790000000000001 13.19719921875 0.5790000000000001 Q 13.23619921875 0.5790000000000001 13.24969921875 0.5880000000000001 Q 13.26319921875 0.5970000000000001 13.26319921875 0.636 L 13.26319921875 0.7095 Q 13.29919921875 0.657 13.34569921875 0.63075 Q 13.39219921875 0.6045 13.44469921875 0.6045 Q 13.48219921875 0.6045 13.51294921875 0.6172500000000001 Q 13.54369921875 0.63 13.56619921875 0.65025 Q 13.58869921875 0.6705000000000001 13.60069921875 0.6967500000000001 Q 13.61269921875 0.7230000000000001 13.61269921875 0.7515000000000001" fill="#000000" fill-rule="nonzero"></path></g><g></g></g><defs><clipPath id="SvgjsClipPath24341"><path d=" M 0.913386773903146 -12.058449840865583 h 11.808449840865583 v 11.808449840865583 h -11.808449840865583 Z"></path></clipPath><clipPath id="SvgjsClipPath2433927fca456-d912-4143-a066-d0c86abd5cf3"><path d=" M 0.913386773903146 -12.058449840865583 L 12.72183661476873 -12.058449840865583 L 12.72183661476873 -0.25 L 0.913386773903146 -0.25 Z"></path></clipPath></defs></svg>